<?xml version="1.0" encoding="utf-8"?>
<!-- Generator: Adobe Illustrator 18.1.1, SVG Export Plug-In . SVG Version: 6.00 Build 0)  -->
<!DOCTYPE svg PUBLIC "-//W3C//DTD SVG 1.1//EN" "http://www.w3.org/Graphics/SVG/1.1/DTD/svg11.dtd">
<svg version="1.1" id="Layer_1" xmlns="http://www.w3.org/2000/svg" xmlns:xlink="http://www.w3.org/1999/xlink" x="0px" y="0px"
	 viewBox="0 370 841.9 225.2" enable-background="new 0 370 841.9 225.2" xml:space="preserve">
<g>
	<path fill="#3C3C41" d="M284.7,524.8h-25.4c-3.1,0-3.8-1.3-3.8-4.4v-80c0-3.1,1.3-3.6,4.2-3.6h20.6c22.5,0,33.6,6.7,33.6,21.6
		c0,8.6-5,16.4-13.8,18.3v0.2c12,1.3,20.6,9.4,20.6,22.2C320.8,519.8,303,524.8,284.7,524.8z M281.6,451.8h-6.3v19.9h4.8
		c9.5,0,13.9-2.7,13.9-10.7C294,454.9,289.3,451.8,281.6,451.8z M294,487.3c-3.6-1.7-7.4-1.7-12.4-1.7c-1.5,0-4.4,0.2-6.3,0.2v23.7
		h7.8c3.8,0,7.6-0.2,10.5-1.3c4-1.5,6.7-5.2,6.7-10.3C300.3,492.5,297.7,488.8,294,487.3z"/>
	<path fill="#3C3C41" d="M357.8,526.5c-21.4,0-31.5-13.9-31.5-32.9c0-18.7,11.8-32.5,32.5-32.5c21.4,0,31.5,13.9,31.5,32.9
		C390.1,512.5,378.3,526.5,357.8,526.5z M358.4,476.1c-9.4,0-12.4,8.2-12.4,17.4c0,9.4,2.7,18,12,18c9.4,0,12.4-8.4,12.4-17.8
		C370.4,484.3,367.7,476.1,358.4,476.1z"/>
	<path fill="#3C3C41" d="M437.3,464.6l-1.9,12c-0.2,1.3-1,2.1-2.1,2.1c-0.2,0-0.2,0-0.4,0s-0.2,0-0.2,0c-1-0.2-2.3-0.4-3.4-0.4
		c-4.2,0-8.6,1.7-11.7,5v38c0,2.3-1,3.6-3.6,3.6h-12c-2.3,0-3.6-1.1-3.6-3.6V482v-15.5c0-3.1,1.5-3.6,3.6-3.6h10.3
		c2.5,0,3.6,0.6,3.6,2.5l0.2,3.8c4.6-5.5,8.4-8.2,15.9-8.2c1,0,2.5,0.2,3.6,0.6c1,0.2,1.3,0.8,1.5,1.7c0,0.2,0,0.2,0,0.2
		C437.3,463.8,437.3,464.2,437.3,464.6z"/>
	<path fill="#3C3C41" d="M494.9,524.8h-10.7c-2.1,0-3.2-1.1-3.2-2.5l-0.2-2.7c-3.2,3.4-10.1,6.9-16.2,6.9
		c-18.3,0-27.3-14.3-27.3-31.5c0-17,9-34,27.9-34c5.5,0,10.9,1.9,14.3,5.2v-26.7c0-2.3,0.6-3.6,3.1-4l12.4-1.7c0.2,0,0.8-0.2,1-0.2
		c1.7,0,2.5,1,2.5,2.9v85C498.4,523.8,496.9,524.8,494.9,524.8z M479.3,480.4c-2.3-2.1-6.3-4-10.1-4c-9.4,0-12.2,9.7-12.2,17.4
		c0,7.8,2.1,17.2,11.8,17.2c3.6,0,8.4-2.5,10.5-4.6L479.3,480.4L479.3,480.4z"/>
	<path fill="#3C3C41" d="M562.4,498.8h-35.5c1.5,8,8.6,12.4,16.4,12.4c5.5,0,10.9-1.3,16-3.2c0.6-0.2,1-0.4,1.5-0.4
		c1.1,0,1.7,0.8,2.1,1.7c0.6,2.1,2.5,8,2.5,9.9c0,1.7-1.1,2.1-2.5,2.9c-6.7,3.1-15.7,4.4-22.9,4.4c-20.2,0-33-12.4-33-32.9
		c0-19.7,13.4-32.7,32.9-32.7c8.2,0,15.1,3.1,19.7,8.2c6.3,6.7,7.6,15.5,7.6,24.4v1.7C567,498.2,565.4,498.8,562.4,498.8z
		 M538.3,475.7c-6.3,0-10.5,5.2-11.5,11.1H548C548.2,481.2,545,475.7,538.3,475.7z"/>
	<path fill="#3C3C41" d="M613.1,464.6l-1.9,12c-0.2,1.3-1,2.1-2.1,2.1c-0.2,0-0.2,0-0.4,0c-0.2,0-0.2,0-0.2,0
		c-1-0.2-2.3-0.4-3.4-0.4c-4.2,0-8.6,1.7-11.7,5v38c0,2.3-1,3.6-3.6,3.6h-12c-2.3,0-3.6-1.1-3.6-3.6V482v-15.5
		c0-3.1,1.5-3.6,3.6-3.6h10.3c2.5,0,3.6,0.6,3.6,2.5l0.2,3.8c4.6-5.5,8.4-8.2,15.9-8.2c1,0,2.5,0.2,3.6,0.6c1,0.2,1.3,0.8,1.5,1.7
		c0,0.2,0,0.2,0,0.2C613.3,463.8,613.3,464.2,613.1,464.6z"/>
	<path fill="#3C3C41" d="M680.3,520.2c-5.7,3.2-15.3,5.7-22.7,5.7c-28.3,0-40.5-18.9-40.5-44.9c0-25.4,15.1-45.1,42.4-45.1
		c5.7,0,13.9,1.3,19.7,3.8c1,0.4,1.3,0.6,1.3,1.3c0,0.2-0.2,0.6-0.2,1l-1,3.6c-0.2,1-0.6,1.3-1.3,1.3c-0.2,0-0.6-0.2-1.1-0.2
		c-5.2-2.1-12.8-3.4-17.4-3.4c-22.5,0-32.9,18-32.9,37.6c0,18.5,7.8,38.4,30.2,38.4c5.9,0,12-1,17.4-3.8V482h-14.7
		c-1.7,0-2.1,0-2.1-2.1v-3.2c0-1.3,0.4-1.7,1.9-1.7h21.4c1.7,0,2.1,0.4,2.1,2.1v38.2C682.8,518.5,682.8,518.8,680.3,520.2z"/>
	<path fill="#3C3C41" d="M743.5,524.8h-4c-1.3,0-2.1-0.8-2.1-2.3l-0.2-4.4c-5.9,5.2-12.8,7.8-19.9,7.8c-6.3,0-11.1-1.9-14.3-5.2
		c-4-4-5.7-10.1-5.7-18.1v-36.9c0-1.5,0.6-2.3,2.1-2.3h4c1.3,0,2.1,0.8,2.1,2.3v35.9c0,6.3,1,10.9,3.6,13.9
		c1.9,2.1,5.5,3.6,10.3,3.6c6.1,0,13.8-4.2,18-8.4v-45.1c0-1.5,0.6-2.3,2.1-2.3h4c1.3,0,2.1,0.8,2.1,2.3v56.7
		C745.6,524,745,524.8,743.5,524.8z"/>
	<path fill="#3C3C41" d="M785.9,468.2c-0.2,0.6-0.6,1-1,1c-0.2,0-0.2,0-0.2,0c-1.3-0.2-2.7-0.6-4-0.6c-4.6,0-9.7,3.4-13,8.6v45.3
		c0,1.5-0.6,2.3-2.1,2.3h-4c-1.3,0-2.1-0.8-2.1-2.3v-56.7c0-1.5,0.6-2.3,2.1-2.3h4c1.3,0,2.1,0.8,2.1,2.3l0.2,4.4
		c2.5-3.8,7.8-8,14.3-8c1,0,2.5,0.2,3.6,0.4c0.8,0.2,1,0.6,1,1.1c0,0.2,0,0.2,0,0.2L785.9,468.2z"/>
	<path fill="#3C3C41" d="M839.8,524.8h-4c-1.3,0-2.1-0.8-2.1-2.3l-0.2-4.4c-5.9,5.2-12.8,7.8-19.9,7.8c-6.3,0-11.1-1.9-14.3-5.2
		c-4-4-5.7-10.1-5.7-18.1v-36.9c0-1.5,0.6-2.3,2.1-2.3h4c1.3,0,2.1,0.8,2.1,2.3v35.9c0,6.3,1,10.9,3.6,13.9
		c1.9,2.1,5.5,3.6,10.3,3.6c6.1,0,13.8-4.2,18-8.4v-45.1c0-1.5,0.6-2.3,2.1-2.3h4c1.3,0,2.1,0.8,2.1,2.3v56.7
		C841.7,524,841.1,524.8,839.8,524.8z"/>
</g>
<path fill="#0091CD" d="M103.4,397.6L103.4,397.6c-1.9,0-3.8,0.2-5.6,0.6L46.4,409c-1,0.2-1.9,0-2.5-0.8L4.6,370.8
	c-1.7-1.7-4.6-0.4-4.6,1.9v170.9c0,1.3,1,2.5,2.1,2.7l95.7,20.4c1.9,0.4,3.8,0.7,5.6,0.7v0h0.1V397.6H103.4z"/>
<path fill="#0079AB" d="M204.8,418.4l-95.7-20.2c-1.9-0.4-3.8-0.6-5.7-0.6v169.8c1.9,0,3.8-0.2,5.7-0.6l42.8-9
	c1.7-0.4,3.2,1,3.2,2.7v32.1c0,2.5,3.1,3.6,4.8,1.9l45.5-46.8c1-1,1.5-2.5,1.5-3.8V421C207.1,419.9,206.2,418.8,204.8,418.4z"/>
</svg>
